<?xml version="1.0" encoding="UTF-8" standalone="no"?>
<svg width="60px" height="60px" viewBox="0 0 60 60" version="1.1" xmlns="http://www.w3.org/2000/svg" xmlns:xlink="http://www.w3.org/1999/xlink">
    <!-- Generator: Sketch 41.2 (35397) - http://www.bohemiancoding.com/sketch -->
    <title>Combined Shape</title>
    <desc>Created with Sketch.</desc>
    <defs></defs>
    <g id="Page-1" stroke="none" stroke-width="1" fill="none" fill-rule="evenodd">
        <g id="001" transform="translate(-222.000000, -203.000000)" fill="#757575">
            <path d="M251.987258,251.406287 L251.987258,263 C271.638772,263 286.904395,244.028469 280.478554,223.424979 C277.690623,214.449201 270.5168,207.309377 261.541022,204.487447 C240.971531,198.061606 222,213.361228 222,232.978742 L233.593713,232.978742 C233.593713,220.671047 245.799411,211.151282 258.753091,215.843166 C263.546972,217.577123 267.388877,221.419028 269.122835,226.21291 C273.844365,239.154659 264.31254,251.349804 252.021258,251.372257 L252.021258,239.846573 L240.461543,239.846573 L240.461543,251.406287 L251.987258,251.406287 Z M231.553764,260.314066 L240.461543,260.314066 L240.461543,251.406287 L231.553764,251.406287 L231.553764,260.314066 Z M224.107948,251.406287 L231.553764,251.406287 L231.553764,243.960471 L224.107948,243.960471 L224.107948,251.406287 Z" id="Combined-Shape"></path>
        </g>
    </g>
</svg>