<?xml version="1.0" encoding="UTF-8" standalone="no"?>
<svg width="134px" height="49px" viewBox="0 0 134 49" version="1.1" xmlns="http://www.w3.org/2000/svg" xmlns:xlink="http://www.w3.org/1999/xlink">
    <!-- Generator: Sketch 41.2 (35397) - http://www.bohemiancoding.com/sketch -->
    <title>Group</title>
    <desc>Created with Sketch.</desc>
    <defs></defs>
    <g id="Page-1" stroke="none" stroke-width="1" fill="none" fill-rule="evenodd">
        <g id="001" transform="translate(-649.000000, -210.000000)">
            <g id="Group" transform="translate(649.000000, 210.000000)">
                <polygon id="Fill-1" fill="#A7A7A7" points="17.2273196 46.8243816 9.36291756 43.9938026 9.36291756 32.4279079 17.2273196 35.1165132"></polygon>
                <polygon id="Fill-2" fill="#A7A7A7" points="18.6696097 46.8243816 26.5340117 43.9938026 26.5340117 32.4279079 18.6696097 35.1165132"></polygon>
                <polygon id="Fill-3" fill="#A7A7A7" points="10.1710774 31.5629289 18.1306092 29.3149553 25.5108382 31.7025079 18.1306092 34.2166395"></polygon>
                <polygon id="Fill-4" fill="#A7A7A7" points="7.86440204 30.6669211 0 27.8363421 0 16.2707895 7.86440204 18.9587105"></polygon>
                <polygon id="Fill-5" fill="#A7A7A7" points="9.30665802 30.6669211 17.171401 27.8363421 17.171401 16.2707895 9.30665802 18.9587105"></polygon>
                <polygon id="Fill-6" fill="#A7A7A7" points="0.8081257 15.4051263 8.76765751 13.1576316 16.1482275 15.5450474 8.76765751 18.0588368"></polygon>
                <polygon id="Fill-7" fill="#A7A7A7" points="26.215344 30.6669211 18.350601 27.8363421 18.350601 16.2707895 26.215344 18.9587105"></polygon>
                <polygon id="Fill-8" fill="#A7A7A7" points="27.6574636 30.6669211 35.5222748 27.8363421 35.5222748 16.2707895 27.6574636 18.9587105"></polygon>
                <polygon id="Fill-9" fill="#A7A7A7" points="19.1590677 15.4051263 27.1182585 13.1576316 34.4986921 15.5450474 27.1182585 18.0588368"></polygon>
                <polygon id="Fill-10" fill="#A7A7A7" points="35.5781934 14.5092895 27.7136891 11.6790526 27.7136891 0.113157895 35.5781934 2.80142105"></polygon>
                <polygon id="Fill-11" fill="#A7A7A7" points="37.0204835 14.5092895 44.8852265 11.6790526 44.8852265 0.113157895 37.0204835 2.80142105"></polygon>
                <polygon id="Fill-13" fill="#A7A7A7" points="53.9290331 14.5092895 46.0642901 11.6790526 46.0642901 0.113157895 53.9290331 2.80142105"></polygon>
                <polygon id="Fill-14" fill="#A7A7A7" points="55.3709822 14.5092895 63.2357252 11.6790526 63.2357252 0.113157895 55.3709822 2.80142105"></polygon>
                <polygon id="Fill-16" fill="#757575" points="49.9284682 39.2903684 47.2866565 48.4984737 46.1382799 48.4984737 44.0815674 41.6591053 42.1953384 48.4984737 41.0251399 48.4984737 38.2793333 39.2903684 39.6991196 39.2903684 41.6988906 46.1523158 43.6025089 39.2903684 44.6503003 39.2903684 46.7196285 46.1742105 48.7753181 39.2903684"></polygon>
                <polygon id="Stroke-17" points="49.9284682 39.2903684 47.2866565 48.4984737 46.1382799 48.4984737 44.0815674 41.6591053 42.1953384 48.4984737 41.0251399 48.4984737 38.2793333 39.2903684 39.6991196 39.2903684 41.6988906 46.1523158 43.6025089 39.2903684 44.6503003 39.2903684 46.7196285 46.1742105 48.7753181 39.2903684"></polygon>
                <path d="M57.1586718,42.9492868 C57.1463969,42.43305 57.0621781,41.9742868 56.9046514,41.5736816 C56.7474656,41.1723921 56.4815115,40.8309711 56.1067888,40.54805 C55.7320662,40.2658132 55.2816489,40.1245237 54.7558779,40.1245237 C54.0487125,40.1245237 53.4486107,40.3797342 52.9562545,40.8901553 C52.4635573,41.4005763 52.187374,42.0868395 52.1266819,42.9492868 L57.1586718,42.9492868 Z M57.2364122,45.7514711 L58.5661832,46.0251553 C58.3240967,46.8126816 57.8525394,47.4647342 57.1515115,47.9802868 C56.4494606,48.4965237 55.6243206,48.7544711 54.6747277,48.7544711 C53.4230382,48.7544711 52.4103664,48.3121289 51.6360305,47.4264184 C50.8620356,46.5413921 50.4750382,45.3806289 50.4750382,43.9448132 C50.4750382,42.4782079 50.8773791,41.2934974 51.6817201,40.3903395 C52.4857201,39.4864974 53.4956641,39.0349184 54.7115522,39.0349184 C55.909369,39.0349184 56.8722595,39.4505763 57.6009059,40.2825763 C58.3298931,41.1149184 58.7032519,42.3591553 58.7213232,44.0166553 L52.0601934,44.0166553 C52.0601934,45.4093658 52.3500153,46.3484447 52.9306819,46.8349184 C53.5103257,47.3213921 54.1240662,47.5642868 54.7705394,47.5642868 C55.9369873,47.5642868 56.7587176,46.9601289 57.2364122,45.7514711 Z" id="Fill-18" fill="#757575"></path>
                <path d="M57.1586718,42.9492868 C57.1463969,42.43305 57.0621781,41.9742868 56.9046514,41.5736816 C56.7474656,41.1723921 56.4815115,40.8309711 56.1067888,40.54805 C55.7320662,40.2658132 55.2816489,40.1245237 54.7558779,40.1245237 C54.0487125,40.1245237 53.4486107,40.3797342 52.9562545,40.8901553 C52.4635573,41.4005763 52.187374,42.0868395 52.1266819,42.9492868 L57.1586718,42.9492868 Z M57.2364122,45.7514711 L58.5661832,46.0251553 C58.3240967,46.8126816 57.8525394,47.4647342 57.1515115,47.9802868 C56.4494606,48.4965237 55.6243206,48.7544711 54.6747277,48.7544711 C53.4230382,48.7544711 52.4103664,48.3121289 51.6360305,47.4264184 C50.8620356,46.5413921 50.4750382,45.3806289 50.4750382,43.9448132 C50.4750382,42.4782079 50.8773791,41.2934974 51.6817201,40.3903395 C52.4857201,39.4864974 53.4956641,39.0349184 54.7115522,39.0349184 C55.909369,39.0349184 56.8722595,39.4505763 57.6009059,40.2825763 C58.3298931,41.1149184 58.7032519,42.3591553 58.7213232,44.0166553 L52.0601934,44.0166553 C52.0601934,45.4093658 52.3500153,46.3484447 52.9306819,46.8349184 C53.5103257,47.3213921 54.1240662,47.5642868 54.7705394,47.5642868 C55.9369873,47.5642868 56.7587176,46.9601289 57.2364122,45.7514711 Z" id="Stroke-19"></path>
                <path d="M62.0293842,44.8883395 C62.0958728,45.8339184 62.3846718,46.5198395 62.8961221,46.9467868 C63.4075725,47.3733921 63.9476641,47.5868658 64.5163969,47.5868658 C65.2423155,47.5868658 65.8277557,47.2704184 66.2723766,46.6378658 C66.7173384,46.0056553 66.9396489,45.1387605 66.9396489,44.0382079 C66.9396489,42.8524711 66.7248397,41.9202342 66.2952214,41.2418395 C65.8652621,40.5637868 65.2692519,40.2244184 64.5075318,40.2244184 C63.908112,40.2244184 63.3683613,40.4659447 62.887257,40.9483132 C62.4058117,41.4317079 62.1200814,42.0553658 62.0293842,42.8203132 L62.0293842,44.8883395 Z M61.2867583,48.4985763 L60.5997099,48.4985763 L60.5997099,36.0654447 L62.0293842,36.0654447 L62.0293842,40.8251553 C62.6819949,39.63155 63.5818066,39.0349184 64.7298422,39.0349184 C65.7807023,39.0349184 66.6610789,39.4512605 67.371313,40.2853132 C68.0808651,41.1186816 68.4361527,42.3297342 68.4361527,43.9171026 C68.4361527,45.2862079 68.0866616,46.4346553 67.3887023,47.3621026 C66.6897201,48.2902342 65.7813842,48.7544711 64.6626718,48.7544711 C63.4171196,48.7544711 62.4617303,48.1609184 61.7965038,46.9751816 L61.2867583,48.4985763 Z" id="Fill-20" fill="#757575"></path>
                <path d="M62.0293842,44.8883395 C62.0958728,45.8339184 62.3846718,46.5198395 62.8961221,46.9467868 C63.4075725,47.3733921 63.9476641,47.5868658 64.5163969,47.5868658 C65.2423155,47.5868658 65.8277557,47.2704184 66.2723766,46.6378658 C66.7173384,46.0056553 66.9396489,45.1387605 66.9396489,44.0382079 C66.9396489,42.8524711 66.7248397,41.9202342 66.2952214,41.2418395 C65.8652621,40.5637868 65.2692519,40.2244184 64.5075318,40.2244184 C63.908112,40.2244184 63.3683613,40.4659447 62.887257,40.9483132 C62.4058117,41.4317079 62.1200814,42.0553658 62.0293842,42.8203132 L62.0293842,44.8883395 Z M61.2867583,48.4985763 L60.5997099,48.4985763 L60.5997099,36.0654447 L62.0293842,36.0654447 L62.0293842,40.8251553 C62.6819949,39.63155 63.5818066,39.0349184 64.7298422,39.0349184 C65.7807023,39.0349184 66.6610789,39.4512605 67.371313,40.2853132 C68.0808651,41.1186816 68.4361527,42.3297342 68.4361527,43.9171026 C68.4361527,45.2862079 68.0866616,46.4346553 67.3887023,47.3621026 C66.6897201,48.2902342 65.7813842,48.7544711 64.6626718,48.7544711 C63.4171196,48.7544711 62.4617303,48.1609184 61.7965038,46.9751816 L61.2867583,48.4985763 Z" id="Stroke-21"></path>
                <path d="M72.0797252,46.1120842 L73.4429109,45.8295053 C73.7460305,46.9861632 74.7034656,47.5643211 76.3152163,47.5643211 C76.9084987,47.5643211 77.4117659,47.4312421 77.8236539,47.1644 C78.235883,46.8979 78.441827,46.5219263 78.441827,46.0368211 C78.441827,45.3160053 77.9174198,44.8582684 76.8686056,44.6642947 L74.9353232,44.2951632 C74.1783766,44.1494263 73.576229,43.8637684 73.1281985,43.4381895 C72.6805089,43.0126105 72.4564936,42.4505316 72.4564936,41.7512684 C72.4564936,40.9798211 72.762,40.3339263 73.3733537,39.8142684 C73.9843664,39.2946105 74.8074606,39.0349526 75.8422952,39.0349526 C77.833201,39.0349526 79.0623868,39.8156368 79.5281476,41.3766632 L78.2201985,41.6589 C77.8447939,40.7027158 77.0738677,40.2244526 75.9070789,40.2244526 C75.3260712,40.2244526 74.8497405,40.3441895 74.4774046,40.5829789 C74.1054097,40.8217684 73.9195827,41.1556632 73.9195827,41.5853474 C73.9195827,42.2620316 74.3952316,42.6879526 75.3455064,42.8637947 L77.132173,43.1935842 C79.0030585,43.5339789 79.9379898,44.4446632 79.9379898,45.9235842 C79.9379898,46.7696105 79.5898626,47.4531368 78.8929262,47.9731368 C78.1966718,48.4941632 77.2702646,48.7545053 76.1130229,48.7545053 C73.9390178,48.7545053 72.5942443,47.8732421 72.0797252,46.1120842 Z" id="Fill-22" fill="#757575"></path>
                <path d="M72.0797252,46.1120842 L73.4429109,45.8295053 C73.7460305,46.9861632 74.7034656,47.5643211 76.3152163,47.5643211 C76.9084987,47.5643211 77.4117659,47.4312421 77.8236539,47.1644 C78.235883,46.8979 78.441827,46.5219263 78.441827,46.0368211 C78.441827,45.3160053 77.9174198,44.8582684 76.8686056,44.6642947 L74.9353232,44.2951632 C74.1783766,44.1494263 73.576229,43.8637684 73.1281985,43.4381895 C72.6805089,43.0126105 72.4564936,42.4505316 72.4564936,41.7512684 C72.4564936,40.9798211 72.762,40.3339263 73.3733537,39.8142684 C73.9843664,39.2946105 74.8074606,39.0349526 75.8422952,39.0349526 C77.833201,39.0349526 79.0623868,39.8156368 79.5281476,41.3766632 L78.2201985,41.6589 C77.8447939,40.7027158 77.0738677,40.2244526 75.9070789,40.2244526 C75.3260712,40.2244526 74.8497405,40.3441895 74.4774046,40.5829789 C74.1054097,40.8217684 73.9195827,41.1556632 73.9195827,41.5853474 C73.9195827,42.2620316 74.3952316,42.6879526 75.3455064,42.8637947 L77.132173,43.1935842 C79.0030585,43.5339789 79.9379898,44.4446632 79.9379898,45.9235842 C79.9379898,46.7696105 79.5898626,47.4531368 78.8929262,47.9731368 C78.1966718,48.4941632 77.2702646,48.7545053 76.1130229,48.7545053 C73.9390178,48.7545053 72.5942443,47.8732421 72.0797252,46.1120842 Z" id="Stroke-23"></path>
                <path d="M87.4641527,42.9492868 C87.4522188,42.43305 87.3673181,41.9742868 87.2104733,41.5736816 C87.0529466,41.1723921 86.7873333,40.8309711 86.4126107,40.54805 C86.037888,40.2658132 85.5871298,40.1245237 85.0616997,40.1245237 C84.3545344,40.1245237 83.7544326,40.3797342 83.2617354,40.8901553 C82.7690382,41.4005763 82.492514,42.0868395 82.4321628,42.9492868 L87.4641527,42.9492868 Z M87.5418931,45.7514711 L88.8716641,46.0251553 C88.6302595,46.8126816 88.1583613,47.4647342 87.4566514,47.9802868 C86.7556234,48.4965237 85.9298015,48.7544711 84.9805496,48.7544711 C83.7285191,48.7544711 82.7155064,48.3121289 81.9418524,47.4264184 C81.1675165,46.5413921 80.7805191,45.3806289 80.7805191,43.9448132 C80.7805191,42.4782079 81.1825191,41.2934974 81.987542,40.3903395 C82.791883,39.4864974 83.801827,39.0349184 85.017715,39.0349184 C86.2145089,39.0349184 87.1780814,39.4505763 87.9067277,40.2825763 C88.635715,41.1149184 89.0090738,42.3591553 89.0268041,44.0166553 L82.3656743,44.0166553 C82.3656743,45.4093658 82.6558372,46.3484447 83.2358219,46.8349184 C83.8164885,47.3213921 84.4295471,47.5642868 85.0763613,47.5642868 C86.2424682,47.5642868 87.0645394,46.9601289 87.5418931,45.7514711 Z" id="Fill-24" fill="#757575"></path>
                <path d="M87.4641527,42.9492868 C87.4522188,42.43305 87.3673181,41.9742868 87.2104733,41.5736816 C87.0529466,41.1723921 86.7873333,40.8309711 86.4126107,40.54805 C86.037888,40.2658132 85.5871298,40.1245237 85.0616997,40.1245237 C84.3545344,40.1245237 83.7544326,40.3797342 83.2617354,40.8901553 C82.7690382,41.4005763 82.492514,42.0868395 82.4321628,42.9492868 L87.4641527,42.9492868 Z M87.5418931,45.7514711 L88.8716641,46.0251553 C88.6302595,46.8126816 88.1583613,47.4647342 87.4566514,47.9802868 C86.7556234,48.4965237 85.9298015,48.7544711 84.9805496,48.7544711 C83.7285191,48.7544711 82.7155064,48.3121289 81.9418524,47.4264184 C81.1675165,46.5413921 80.7805191,45.3806289 80.7805191,43.9448132 C80.7805191,42.4782079 81.1825191,41.2934974 81.987542,40.3903395 C82.791883,39.4864974 83.801827,39.0349184 85.017715,39.0349184 C86.2145089,39.0349184 87.1780814,39.4505763 87.9067277,40.2825763 C88.635715,41.1149184 89.0090738,42.3591553 89.0268041,44.0166553 L82.3656743,44.0166553 C82.3656743,45.4093658 82.6558372,46.3484447 83.2358219,46.8349184 C83.8164885,47.3213921 84.4295471,47.5642868 85.0763613,47.5642868 C86.2424682,47.5642868 87.0645394,46.9601289 87.5418931,45.7514711 Z" id="Stroke-25"></path>
                <path d="M91.9942392,48.4984737 L90.5645649,48.4984737 L90.5645649,39.2903684 L91.8169364,39.2903684 L91.8169364,41.4367368 C92.2584885,40.4312895 92.7020865,39.7799211 93.1467074,39.4822895 C93.5913282,39.1836316 94.0468601,39.0348158 94.5129618,39.0348158 C94.6578728,39.0348158 94.8457455,39.0457632 95.0755573,39.0683421 L95.0755573,40.4360789 L94.7860763,40.4360789 C94.0001476,40.4360789 93.3475369,40.7289211 92.8279033,41.3146053 C92.3086107,41.9002895 92.0303817,42.6696842 91.9942392,43.6238158 L91.9942392,48.4984737 Z" id="Fill-26" fill="#757575"></path>
                <path d="M91.9942392,48.4984737 L90.5645649,48.4984737 L90.5645649,39.2903684 L91.8169364,39.2903684 L91.8169364,41.4367368 C92.2584885,40.4312895 92.7020865,39.7799211 93.1467074,39.4822895 C93.5913282,39.1836316 94.0468601,39.0348158 94.5129618,39.0348158 C94.6578728,39.0348158 94.8457455,39.0457632 95.0755573,39.0683421 L95.0755573,40.4360789 L94.7860763,40.4360789 C94.0001476,40.4360789 93.3475369,40.7289211 92.8279033,41.3146053 C92.3086107,41.9002895 92.0303817,42.6696842 91.9942392,43.6238158 L91.9942392,48.4984737 Z" id="Stroke-27"></path>
                <polygon id="Fill-28" fill="#757575" points="103.956041 39.2903684 100.787435 48.4984737 99.3055929 48.4984737 96.0312875 39.2903684 97.6126921 39.2903684 100.160056 46.7749474 102.687644 39.2903684"></polygon>
                <polygon id="Stroke-29" points="103.956041 39.2903684 100.787435 48.4984737 99.3055929 48.4984737 96.0312875 39.2903684 97.6126921 39.2903684 100.160056 46.7749474 102.687644 39.2903684"></polygon>
                <path d="M106.595466,48.4986447 L105.165791,48.4986447 L105.165791,39.2905395 L106.595466,39.2905395 L106.595466,48.4986447 Z M106.628539,37.6556184 L105.098962,37.6556184 L105.098962,36.0655132 L106.628539,36.0655132 L106.628539,37.6556184 Z" id="Fill-30" fill="#757575"></path>
                <path d="M106.595466,48.4986447 L105.165791,48.4986447 L105.165791,39.2905395 L106.595466,39.2905395 L106.595466,48.4986447 Z M106.628539,37.6556184 L105.098962,37.6556184 L105.098962,36.0655132 L106.628539,36.0655132 L106.628539,37.6556184 Z" id="Stroke-31"></path>
                <path d="M114.064687,45.27355 L115.350473,45.50105 C115.168738,46.5188132 114.766397,47.3152342 114.142768,47.8906553 C113.519481,48.4664184 112.741735,48.7544711 111.809873,48.7544711 C110.544885,48.7544711 109.580972,48.2857868 108.918132,47.3487605 C108.255634,46.4120763 107.923873,45.2680763 107.923873,43.9171026 C107.923873,42.5178921 108.273705,41.3543921 108.972687,40.4266026 C109.671328,39.4984711 110.623308,39.0349184 111.827603,39.0349184 C112.826636,39.0349184 113.626885,39.3346026 114.229033,39.9346553 C114.831522,40.5340237 115.20488,41.30855 115.350473,42.2585763 L114.064687,42.5042079 C113.822601,40.9849184 113.091226,40.2244184 111.869542,40.2244184 C111.083272,40.2244184 110.478397,40.5600237 110.055598,41.2308921 C109.632117,41.9021026 109.420377,42.7717342 109.420377,43.8401289 C109.420377,45.0179974 109.630412,45.9327868 110.051165,46.5855237 C110.471237,47.2379184 111.062132,47.5642868 111.824534,47.5642868 C113.003257,47.5642868 113.749975,46.8007079 114.064687,45.27355 Z" id="Fill-32" fill="#757575"></path>
                <path d="M114.064687,45.27355 L115.350473,45.50105 C115.168738,46.5188132 114.766397,47.3152342 114.142768,47.8906553 C113.519481,48.4664184 112.741735,48.7544711 111.809873,48.7544711 C110.544885,48.7544711 109.580972,48.2857868 108.918132,47.3487605 C108.255634,46.4120763 107.923873,45.2680763 107.923873,43.9171026 C107.923873,42.5178921 108.273705,41.3543921 108.972687,40.4266026 C109.671328,39.4984711 110.623308,39.0349184 111.827603,39.0349184 C112.826636,39.0349184 113.626885,39.3346026 114.229033,39.9346553 C114.831522,40.5340237 115.20488,41.30855 115.350473,42.2585763 L114.064687,42.5042079 C113.822601,40.9849184 113.091226,40.2244184 111.869542,40.2244184 C111.083272,40.2244184 110.478397,40.5600237 110.055598,41.2308921 C109.632117,41.9021026 109.420377,42.7717342 109.420377,43.8401289 C109.420377,45.0179974 109.630412,45.9327868 110.051165,46.5855237 C110.471237,47.2379184 111.062132,47.5642868 111.824534,47.5642868 C113.003257,47.5642868 113.749975,46.8007079 114.064687,45.27355 Z" id="Stroke-33"></path>
                <path d="M123.335578,42.9492868 C123.323644,42.43305 123.238743,41.9742868 123.081557,41.5736816 C122.924372,41.1723921 122.658758,40.8309711 122.284036,40.54805 C121.908972,40.2658132 121.458555,40.1245237 120.932784,40.1245237 C120.225277,40.1245237 119.625517,40.3797342 119.13316,40.8901553 C118.640122,41.4005763 118.363598,42.0868395 118.303588,42.9492868 L123.335578,42.9492868 Z M123.413318,45.7514711 L124.743089,46.0251553 C124.501344,46.8126816 124.029786,47.4647342 123.328076,47.9802868 C122.627048,48.4965237 121.801226,48.7544711 120.851975,48.7544711 C119.599944,48.7544711 118.58659,48.3121289 117.812936,47.4264184 C117.038601,46.5413921 116.651603,45.3806289 116.651603,43.9448132 C116.651603,42.4782079 117.053944,41.2934974 117.858967,40.3903395 C118.662967,39.4864974 119.673252,39.0349184 120.888799,39.0349184 C122.085934,39.0349184 123.049506,39.4505763 123.778153,40.2825763 C124.50714,41.1149184 124.880158,42.3591553 124.898229,44.0166553 L118.237099,44.0166553 C118.237099,45.4093658 118.526921,46.3484447 119.107247,46.8349184 C119.687913,47.3213921 120.300631,47.5642868 120.947786,47.5642868 C122.113552,47.5642868 122.935623,46.9601289 123.413318,45.7514711 Z" id="Fill-34" fill="#757575"></path>
                <path d="M123.335578,42.9492868 C123.323644,42.43305 123.238743,41.9742868 123.081557,41.5736816 C122.924372,41.1723921 122.658758,40.8309711 122.284036,40.54805 C121.908972,40.2658132 121.458555,40.1245237 120.932784,40.1245237 C120.225277,40.1245237 119.625517,40.3797342 119.13316,40.8901553 C118.640122,41.4005763 118.363598,42.0868395 118.303588,42.9492868 L123.335578,42.9492868 Z M123.413318,45.7514711 L124.743089,46.0251553 C124.501344,46.8126816 124.029786,47.4647342 123.328076,47.9802868 C122.627048,48.4965237 121.801226,48.7544711 120.851975,48.7544711 C119.599944,48.7544711 118.58659,48.3121289 117.812936,47.4264184 C117.038601,46.5413921 116.651603,45.3806289 116.651603,43.9448132 C116.651603,42.4782079 117.053944,41.2934974 117.858967,40.3903395 C118.662967,39.4864974 119.673252,39.0349184 120.888799,39.0349184 C122.085934,39.0349184 123.049506,39.4505763 123.778153,40.2825763 C124.50714,41.1149184 124.880158,42.3591553 124.898229,44.0166553 L118.237099,44.0166553 C118.237099,45.4093658 118.526921,46.3484447 119.107247,46.8349184 C119.687913,47.3213921 120.300631,47.5642868 120.947786,47.5642868 C122.113552,47.5642868 122.935623,46.9601289 123.413318,45.7514711 Z" id="Stroke-35"></path>
                <path d="M125.705639,46.1120842 L127.069165,45.8295053 C127.372285,46.9861632 128.329379,47.5643211 129.94113,47.5643211 C130.534753,47.5643211 131.037679,47.4312421 131.449567,47.1644 C131.861796,46.8979 132.06774,46.5219263 132.06774,46.0368211 C132.06774,45.3160053 131.543333,44.8582684 130.494519,44.6642947 L128.561578,44.2951632 C127.80429,44.1494263 127.202483,43.8637684 126.754112,43.4381895 C126.306763,43.0126105 126.082407,42.4505316 126.082407,41.7512684 C126.082407,40.9798211 126.387913,40.3339263 126.999608,39.8142684 C127.61028,39.2946105 128.433374,39.0349526 129.46855,39.0349526 C131.459455,39.0349526 132.6883,39.8156368 133.154061,41.3766632 L131.846112,41.6589 C131.471048,40.7027158 130.699781,40.2244526 129.532992,40.2244526 C128.951985,40.2244526 128.475654,40.3441895 128.103659,40.5829789 C127.731664,40.8217684 127.545496,41.1556632 127.545496,41.5853474 C127.545496,42.2620316 128.021145,42.6879526 128.971761,42.8637947 L130.758427,43.1935842 C132.628972,43.5339789 133.564244,44.4446632 133.564244,45.9235842 C133.564244,46.7696105 133.216117,47.4531368 132.519181,47.9731368 C131.822926,48.4941632 130.896178,48.7545053 129.739277,48.7545053 C127.564931,48.7545053 126.220499,47.8732421 125.705639,46.1120842 Z" id="Fill-36" fill="#757575"></path>
                <path d="M125.705639,46.1120842 L127.069165,45.8295053 C127.372285,46.9861632 128.329379,47.5643211 129.94113,47.5643211 C130.534753,47.5643211 131.037679,47.4312421 131.449567,47.1644 C131.861796,46.8979 132.06774,46.5219263 132.06774,46.0368211 C132.06774,45.3160053 131.543333,44.8582684 130.494519,44.6642947 L128.561578,44.2951632 C127.80429,44.1494263 127.202483,43.8637684 126.754112,43.4381895 C126.306763,43.0126105 126.082407,42.4505316 126.082407,41.7512684 C126.082407,40.9798211 126.387913,40.3339263 126.999608,39.8142684 C127.61028,39.2946105 128.433374,39.0349526 129.46855,39.0349526 C131.459455,39.0349526 132.6883,39.8156368 133.154061,41.3766632 L131.846112,41.6589 C131.471048,40.7027158 130.699781,40.2244526 129.532992,40.2244526 C128.951985,40.2244526 128.475654,40.3441895 128.103659,40.5829789 C127.731664,40.8217684 127.545496,41.1556632 127.545496,41.5853474 C127.545496,42.2620316 128.021145,42.6879526 128.971761,42.8637947 L130.758427,43.1935842 C132.628972,43.5339789 133.564244,44.4446632 133.564244,45.9235842 C133.564244,46.7696105 133.216117,47.4531368 132.519181,47.9731368 C131.822926,48.4941632 130.896178,48.7545053 129.739277,48.7545053 C127.564931,48.7545053 126.220499,47.8732421 125.705639,46.1120842 Z" id="Stroke-37"></path>
                <path d="M93.4788092,19.6102842 L93.4788092,17.3985737 C93.480173,17.0619421 93.7328295,16.8375211 94.0376539,16.8378632 L103.917852,16.8371789 C104.233929,16.8371789 104.487267,17.0677579 104.487949,17.3958368 L104.487267,19.2928105 C104.48488,19.6106263 104.217903,20.0262842 103.743277,20.6851789 L98.6257048,28.0168368 C100.525573,27.9720211 102.535232,28.2573368 104.261206,29.2309684 C104.65059,29.4502579 104.754585,29.7756 104.785272,30.0944421 L104.785272,32.4542842 C104.785272,32.7796263 104.430667,33.1559421 104.05799,32.9599158 C101.016565,31.3619421 96.9808804,31.1867842 93.6182646,32.9794158 C93.27457,33.1631263 92.9151908,32.7922842 92.9151908,32.4669421 L92.9151908,30.2234158 C92.9151908,29.8645474 92.9216692,29.2504684 93.2827532,28.7031 L99.2121679,20.1679158 L94.0495878,20.1668895 C93.7338524,20.1668895 93.480855,19.9414421 93.4788092,19.6102842" id="Fill-38" fill="#757575"></path>
                <path d="M58.1191756,33.4251447 L55.1135522,33.4251447 C54.8274809,33.4063289 54.5986921,33.1904605 54.5755064,32.9154079 L54.5775522,17.4361711 C54.5775522,17.1265658 54.837369,16.8788816 55.1575369,16.8788816 L57.9568753,16.8781974 C58.2501069,16.89325 58.4850331,17.1156184 58.5037863,17.3978553 L58.5037863,19.4190132 L58.5600458,19.4190132 C59.289715,17.4645658 60.6644936,16.5525132 62.516285,16.5525132 C64.3960356,16.5525132 65.5744173,17.4645658 66.4166056,19.4190132 C67.1459338,17.4645658 68.8013282,16.5525132 70.5692417,16.5525132 C71.8318422,16.5525132 73.2066209,17.0735395 74.0484682,18.2462763 C75.0024936,19.5490132 74.8060967,21.4384605 74.8060967,23.0997237 L74.8040509,32.8678553 C74.8040509,33.1771184 74.5442341,33.4251447 74.2240662,33.4251447 L71.2218524,33.4251447 C70.9200967,33.4056447 70.6821018,33.1658289 70.6821018,32.8692237 L70.6814198,24.6631447 C70.6814198,24.0117763 70.7376794,22.3830132 70.597201,21.7641447 C70.3728448,20.72175 69.6994351,20.4285658 68.8296285,20.4285658 C68.0999593,20.4285658 67.3423308,20.9170921 67.0337557,21.6991447 C66.7248397,22.4808553 66.7531399,23.7835921 66.7531399,24.6631447 L66.7531399,32.8678553 C66.7531399,33.1771184 66.4936641,33.4251447 66.1734962,33.4251447 L63.1709415,33.4251447 C62.8695267,33.4056447 62.6311908,33.1658289 62.6311908,32.8692237 L62.6284631,24.6631447 C62.6284631,22.9368816 62.9090789,20.3960658 60.7766718,20.3960658 C58.6159644,20.3960658 58.7001832,22.8715395 58.7001832,24.6631447 L58.6988193,32.8678553 C58.6991603,33.1771184 58.4393435,33.4251447 58.1191756,33.4251447" id="Fill-39" fill="#757575"></path>
                <path d="M111.774071,20.1104079 C109.574494,20.1104079 109.43572,23.1394079 109.43572,25.0288553 C109.43572,26.9179605 109.407761,30.5589868 111.746112,30.5589868 C114.056845,30.5589868 114.168,27.7000132 114.168,25.7130658 C114.168,24.4099868 114.112422,22.8465658 113.722697,21.6088289 C113.387868,20.5339342 112.719913,20.1104079 111.774071,20.1104079 M111.746112,16.5525132 C116.171863,16.5525132 118.565791,20.3960658 118.565791,25.2820132 C118.565791,30.0047763 115.921934,33.7511711 111.746112,33.7511711 C107.403898,33.7511711 105.037588,29.9072763 105.037588,25.1191711 C105.037588,20.2982237 107.431858,16.5525132 111.746112,16.5525132" id="Fill-40" fill="#757575"></path>
                <path d="M124.971537,33.4251447 L121.976824,33.4251447 C121.675751,33.4056447 121.437415,33.1658289 121.437415,32.8692237 L121.432641,17.3841711 C121.457873,17.10125 121.70712,16.8788816 122.009898,16.8788816 L124.798326,16.8781974 C125.06087,16.8915395 125.277043,17.0714868 125.332621,17.3116447 L125.332621,19.6793553 L125.389221,19.6793553 C126.230728,17.5620658 127.408768,16.5525132 129.485257,16.5525132 C130.831735,16.5525132 132.151277,17.0410395 132.992784,18.3766184 C133.778712,19.6143553 133.778712,21.6991447 133.778712,23.1975658 L133.778712,32.9373026 C133.744616,33.2120132 133.499802,33.4251447 133.202819,33.4251447 L130.189354,33.4251447 C129.910784,33.4070132 129.686427,33.2020921 129.653695,32.9373026 L129.653695,24.5328026 C129.653695,22.8390395 129.850433,20.3635658 127.773944,20.3635658 C127.043934,20.3635658 126.370865,20.8520921 126.034331,21.6013026 C125.613578,22.5458553 125.556977,23.4904079 125.556977,24.5328026 L125.556977,32.8678553 C125.551522,33.1771184 125.291705,33.4251447 124.971537,33.4251447" id="Fill-41" fill="#757575"></path>
                <path d="M88.9736132,33.3863842 C88.7744885,33.5653053 88.4877354,33.5776211 88.2633791,33.4565158 C87.265028,32.6238316 87.0863613,32.2389632 86.5404733,31.4466474 C84.8901934,33.1332263 83.7216997,33.6388579 81.5845191,33.6388579 C79.0538626,33.6388579 77.0854606,32.0720158 77.0854606,28.9383316 C77.0854606,26.4898842 78.4070483,24.8252 80.2908906,24.0089368 C81.9217354,23.2908579 84.1997354,23.1601737 85.9430992,22.9644895 L85.9430992,22.5727789 C85.9430992,21.8547 85.9993588,21.0055947 85.5775827,20.3857 C85.2120662,19.8304632 84.5089924,19.6019368 83.8904784,19.6019368 C82.7438066,19.6019368 81.7246565,20.1913842 81.4743868,21.4130421 C81.4225598,21.6846737 81.224458,21.9535684 80.9523664,21.9675947 L78.0388041,21.6511474 C77.792626,21.5953842 77.5191705,21.3976474 77.5900916,21.0206474 C78.2597506,17.4740421 81.451542,16.4025684 84.3122545,16.4025684 C85.7743206,16.4025684 87.6868041,16.7942789 88.8392723,17.9044105 C90.3020204,19.2755684 90.1608601,21.1037789 90.1608601,23.0948316 L90.1608601,27.7936474 C90.1608601,29.2072263 90.7463003,29.8271211 91.2959389,30.5889895 C91.4875623,30.8633579 91.5308651,31.1897263 91.2857099,31.3898579 C90.6716285,31.9064368 89.5808753,32.8571474 88.9807735,33.3932263 L88.9736132,33.3863842 Z M85.9430992,26.0328316 C85.9430992,27.2083053 85.9710585,28.1874105 85.3808448,29.2322 C84.9028092,30.0809632 84.1434758,30.6033579 83.2995827,30.6033579 C82.1471145,30.6033579 81.472,29.7217526 81.472,28.4159368 C81.472,25.8474105 83.7684122,25.3800947 85.9430992,25.3800947 L85.9430992,26.0328316 Z" id="Fill-42" fill="#757575"></path>
                <path d="M49.909374,33.3863842 C49.7102494,33.5653053 49.4231552,33.5776211 49.1991399,33.4565158 C48.2004478,32.6238316 48.0217812,32.2389632 47.4758931,31.4466474 C45.8259542,33.1332263 44.6578015,33.6388579 42.5202799,33.6388579 C39.9892824,33.6388579 38.0212214,32.0720158 38.0212214,28.9383316 C38.0212214,26.4898842 39.3428092,24.8252 41.2266514,24.0089368 C42.8574962,23.2908579 45.1354962,23.1601737 46.8785191,22.9644895 L46.8785191,22.5727789 C46.8785191,21.8547 46.9347786,21.0055947 46.5133435,20.3857 C46.147827,19.8304632 45.4444122,19.6019368 44.8265802,19.6019368 C43.6799084,19.6019368 42.6600763,20.1913842 42.4101476,21.4130421 C42.3579796,21.6846737 42.1602188,21.9535684 41.8877863,21.9675947 L38.9745649,21.6511474 C38.7283868,21.5953842 38.4545903,21.3976474 38.5258524,21.0206474 C39.1951705,17.4740421 42.3869618,16.4025684 45.2476743,16.4025684 C46.7100814,16.4025684 48.6222239,16.7942789 49.7750331,17.9044105 C51.2377812,19.2755684 51.0966209,21.1037789 51.0966209,23.0948316 L51.0966209,27.7936474 C51.0966209,29.2072263 51.6820611,29.8271211 52.2313588,30.5889895 C52.4229822,30.8633579 52.466285,31.1897263 52.2214707,31.3898579 C51.6073893,31.9064368 50.5162952,32.8571474 49.9165344,33.3932263 L49.909374,33.3863842 Z M46.8785191,26.0328316 C46.8785191,27.2083053 46.9068193,28.1874105 46.3162646,29.2322 C45.8389109,30.0809632 45.0792366,30.6033579 44.2356845,30.6033579 C43.0828753,30.6033579 42.4077608,29.7217526 42.4077608,28.4159368 C42.4077608,25.8474105 44.704514,25.3800947 46.8785191,25.3800947 L46.8785191,26.0328316 Z" id="Fill-43" fill="#757575"></path>
            </g>
        </g>
    </g>
</svg>