<?xml version="1.0" encoding="UTF-8"?>
<svg version="1.1" viewBox="0 0 134 49" xmlns="http://www.w3.org/2000/svg">
<title>Artboard</title>
<desc>Created with Sketch.</desc>
<g fill="none" fill-rule="evenodd">
<g transform="translate(0 16)" fill="#757575" fill-rule="nonzero">
<path d="m127.69 10.359c1.2113-0.20924 2.3528-0.71319 3.3235-1.4673 0.4424-0.46345 0.78134-1.0159 0.9941-1.6206 0.21276-0.60469 0.2942-1.2477 0.23844-1.8863 0.003669-1.0513-0.28612-2.0828-0.83637-2.9786-0.39984-0.68175-0.96329-1.2529-1.6397-1.6616-0.67643-0.40869-1.4446-0.64202-2.234-0.67879h-0.79968l-1.8708-0.066029h-8.4664c-0.51356 0-0.73366 0.21276-0.73366 0.73366v14.835c0 0.51356 0.21276 0.73366 0.73366 0.73366h2.201c0.51356 0 0.73366-0.21276 0.73366-0.73366v-4.9155h2.6925c0.59206 0.03096 1.1548 0.26698 1.592 0.66763l4.2699 4.2919c0.38957 0.39808 0.91193 0.63843 1.4673 0.67496h3.2794c0.51356 0 0.63828-0.3008 0.27879-0.66763l-5.2236-5.2603zm-0.55758-3.1547h-7.8134v-3.7416h7.8134c0.38297 0.047064 0.73512 0.23425 0.98823 0.52549 0.25384 0.29125 0.3903 0.66593 0.3837 1.0519v0.57959c0.006603 0.38675-0.12986 0.76237-0.38297 1.0548-0.25311 0.29244-0.60527 0.48113-0.98897 0.52988zm-14.886 5.6491h-12.127v-3.0593h9.6769c0.51356 0 0.73366-0.21276 0.73366-0.73366v-1.7828c0-0.51356-0.21276-0.73366-0.73366-0.73366h-9.6843v-3.052h12.135c0.51356 0 0.73366-0.21276 0.73366-0.73366v-2.0249c0-0.51356-0.21276-0.73366-0.73366-0.73366h-15.128c-0.51356 0-0.73366 0.21276-0.73366 0.73366v14.849c0 0.51356 0.21276 0.73366 0.73366 0.73366h15.128c0.51356 0 0.73366-0.21276 0.73366-0.73366v-2.0029c0-0.51356-0.24211-0.72632-0.73366-0.72632zm-18.539-7.498c0.01614-1.0382-0.27219-2.0583-0.82903-2.9346-0.40278-0.69866-0.97283-1.2859-1.6595-1.7087-0.6867-0.42273-1.468-0.66759-2.2729-0.71241h-11.122c-0.5209 0-0.73366 0.21276-0.73366 0.73366v14.835c0 0.51356 0.21276 0.73366 0.73366 0.73366h2.3917c0.51356 0 0.73366-0.20542 0.73366-0.73366v-12.098h6.4415c1.3719 0 2.7072 0.90973 2.7072 2.2817v9.831c0 0.51356 0.21276 0.73366 0.73366 0.73366h2.1643c0.5209 0 0.73366-0.21276 0.73366-0.73366l-0.02201-10.227zm-19.999 7.4026h-10.455l10.477-9.2074c0.21056-0.16091 0.38444-0.36426 0.51062-0.59684 0.12619-0.23258 0.20249-0.48918 0.22303-0.75308v-1.4673c0-0.51356-0.2201-0.73366-0.73366-0.73366h-15.165c-0.51356 0-0.73366 0.21276-0.73366 0.73366v2.0322c0 0.51356 0.21276 0.73366 0.73366 0.73366h9.7209l-9.7503 9.1487c-0.20858 0.16243-0.38135 0.36617-0.50754 0.59844-0.12626 0.23228-0.20322 0.4881-0.22611 0.75148v1.592c0 0.51356 0.21276 0.73366 0.73366 0.73366h15.15c0.51356 0 0.73366-0.21276 0.73366-0.73366v-2.1056c0.014673-0.51356-0.19809-0.72632-0.71165-0.72632zm-19.28-12.758h-15.143c-0.5209 0-0.73366 0.20542-0.73366 0.73366v2.0249c0 0.51356 0.20542 0.73366 0.73366 0.73366h5.7078v12.091c0 0.51356 0.21276 0.73366 0.73366 0.73366h2.4211c0.51356 0 0.73366-0.21276 0.73366-0.73366v-12.098h5.5538c0.51356 0 0.73366-0.21276 0.73366-0.73366v-2.0176c-0.014673-0.49889-0.22743-0.73366-0.74099-0.73366zm-19.28 12.854h-12.105v-3.0593h9.6769c0.51356 0 0.73366-0.21276 0.73366-0.73366v-1.7828c0-0.51356-0.20542-0.73366-0.73366-0.73366h-9.6769v-3.052h12.105c0.51356 0 0.73366-0.21276 0.73366-0.73366v-2.0249c0-0.51356-0.21276-0.73366-0.73366-0.73366h-15.099c-0.51356 0-0.73366 0.21276-0.73366 0.73366v14.849c0 0.51356 0.21276 0.73366 0.73366 0.73366h15.099c0.51356 0 0.73366-0.21276 0.73366-0.73366v-2.0029c-0.0073365-0.51356-0.2201-0.72632-0.73366-0.72632zm-19.28-12.854h-2.2817c-0.51356 0-0.73366 0.21276-0.73366 0.73366v5.7739h-9.09v-5.7739c0-0.51356-0.21276-0.73366-0.73366-0.73366h-2.2963c-0.5209 0-0.73366 0.21276-0.73366 0.73366v14.857c0 0.5209 0.21276 0.73366 0.73366 0.73366h2.2963c0.51356 0 0.73366-0.20542 0.73366-0.73366v-5.8692h9.0973v5.8692c0 0.51356 0.21276 0.73366 0.73366 0.73366h2.2817c0.51356 0 0.73366-0.21276 0.73366-0.73366v-14.857c-0.014673-0.49889-0.22743-0.73366-0.74099-0.73366z"/>
</g>
</g>
</svg>
