<?xml version="1.0" encoding="UTF-8" standalone="no"?>
<svg width="50px" height="60px" viewBox="0 0 50 60" version="1.1" xmlns="http://www.w3.org/2000/svg" xmlns:xlink="http://www.w3.org/1999/xlink">
    <!-- Generator: Sketch 41.2 (35397) - http://www.bohemiancoding.com/sketch -->
    <title>linode-logo_diagonal_light</title>
    <desc>Created with Sketch.</desc>
    <defs></defs>
    <g id="Page-1" stroke="none" stroke-width="1" fill="none" fill-rule="evenodd">
        <g id="001" transform="translate(-459.000000, -203.000000)">
            <g id="linode-logo_diagonal_light" transform="translate(459.000000, 203.000000)">
                <g id="Group-17">
                    <path d="M49.6971429,26.6328571 C49.6966667,26.6261905 49.6942857,26.62 49.6935714,26.6133333 C49.6919048,26.6 49.6892857,26.5871429 49.6861905,26.5742857 C49.6819048,26.5554762 49.6761905,26.5369048 49.6688095,26.5188095 C49.6640476,26.5071429 49.6588095,26.4954762 49.652619,26.4842857 C49.6430952,26.4666667 49.6316667,26.4504762 49.6192857,26.4347619 C49.6119048,26.425 49.6047619,26.415 49.5961905,26.4061905 C49.5807143,26.3904762 49.5630952,26.3769048 49.5447619,26.3638095 C49.537619,26.3588095 49.532381,26.3521429 49.5247619,26.347619 C49.5230952,26.3464286 49.5209524,26.3461905 49.5192857,26.3452381 C49.5171429,26.3440476 49.5157143,26.342381 49.5135714,26.3411905 L41.3780952,21.8333333 C41.2659524,21.7711905 41.1283333,21.7738095 41.0188095,21.8409524 L34.1516667,26.0390476 C34.1397619,26.0464286 34.1304762,26.0561905 34.1197619,26.0647619 C34.1085714,26.0735714 34.0964286,26.0816667 34.0861905,26.0916667 C34.0745238,26.1035714 34.065,26.1171429 34.055,26.1304762 C34.0466667,26.1416667 34.037381,26.1519048 34.0302381,26.1635714 C34.0216667,26.1783333 34.0159524,26.1947619 34.0095238,26.2104762 C34.0045238,26.2228571 33.9980952,26.2347619 33.9945238,26.247619 C33.9895238,26.2647619 33.9883333,26.2830952 33.9861905,26.3011905 C33.9847619,26.3130952 33.9809524,26.3245238 33.9807143,26.3366667 L33.907619,29.9821429 L31.1140476,28.1369048 C30.9983333,28.0604762 30.8490476,28.0578571 30.7309524,28.13 L26.7119048,30.5866667 L26.537619,26.5014286 C26.537381,26.4909524 26.5338095,26.4811905 26.532381,26.4707143 C26.5304762,26.4554762 26.5285714,26.44 26.5245238,26.4252381 C26.5207143,26.4107143 26.515,26.3969048 26.5095238,26.3830952 C26.5038095,26.3690476 26.4980952,26.3552381 26.4909524,26.342381 C26.4835714,26.3292857 26.4745238,26.317381 26.4657143,26.3052381 C26.4566667,26.2930952 26.4478571,26.2811905 26.437381,26.2702381 C26.4269048,26.2595238 26.4152381,26.25 26.4033333,26.2404762 C26.3952381,26.2340476 26.3888095,26.2259524 26.38,26.2202381 L22.197619,23.4109524 L26.112381,21.3738095 C26.2352381,21.3095238 26.3102381,21.1802381 26.3042857,21.0416667 L25.6466667,5.66214286 C25.6459524,5.64333333 25.6414286,5.62547619 25.6378571,5.60714286 C25.6361905,5.59952381 25.6359524,5.59166667 25.6340476,5.58404762 C25.6257143,5.55357143 25.6135714,5.52428571 25.597619,5.49714286 C25.5940476,5.49119048 25.5892857,5.48619048 25.5852381,5.48047619 C25.5716667,5.46 25.5566667,5.44095238 25.5390476,5.42357143 C25.5311905,5.41595238 25.522381,5.40952381 25.5140476,5.40261905 C25.5045238,5.3947619 25.4961905,5.38571429 25.4857143,5.37880952 C25.4778571,5.37357143 25.4685714,5.37071429 25.4602381,5.36619048 C25.4547619,5.36309524 25.4507143,5.35833333 25.4452381,5.35571429 L14.8964286,0.265714286 C14.8147619,0.226428571 14.7214286,0.219285714 14.635,0.246428571 L0.248571429,4.72809524 C0.247857143,4.72833333 0.247142857,4.72880952 0.246428571,4.72904762 C0.234047619,4.73309524 0.223809524,4.7402381 0.212142857,4.74547619 C0.192142857,4.75428571 0.171666667,4.76214286 0.153333333,4.7747619 C0.152380952,4.77547619 0.151190476,4.77547619 0.15047619,4.77619048 C0.140952381,4.78285714 0.134285714,4.79214286 0.125714286,4.79952381 C0.108809524,4.81380952 0.0916666667,4.82761905 0.0780952381,4.84428571 C0.0685714286,4.85619048 0.0621428571,4.87 0.054047619,4.88309524 C0.0442857143,4.89904762 0.0333333333,4.91428571 0.0261904762,4.93142857 C0.0197619048,4.94690476 0.0169047619,4.96380952 0.0126190476,4.9802381 C0.00880952381,4.9947619 0.00261904762,5.00857143 0.000476190476,5.02380952 C0.000238095238,5.02595238 0.000952380952,5.02809524 0.000714285714,5.03047619 C-0.000952380952,5.04642857 0.000952380952,5.06190476 0.00142857143,5.07785714 C0.0019047619,5.09666667 0.00119047619,5.1152381 0.00476190476,5.13404762 C0.00523809524,5.13666667 0.00452380952,5.13904762 0.005,5.14142857 L3.215,20.6459524 C3.23214286,20.7288095 3.27833333,20.8030952 3.345,20.8552381 L7.70190476,24.2511905 L4.55214286,25.7509524 C4.54595238,25.7538095 4.54119048,25.7583333 4.53547619,25.7616667 C4.53119048,25.7640476 4.52619048,25.7645238 4.52214286,25.7671429 C4.51571429,25.7707143 4.51166667,25.7766667 4.50571429,25.7807143 C4.48642857,25.7940476 4.46880952,25.8085714 4.45285714,25.8247619 C4.4447619,25.8330952 4.43642857,25.8411905 4.42928571,25.8502381 C4.41380952,25.8695238 4.40119048,25.8902381 4.39,25.9119048 C4.38595238,25.92 4.38071429,25.9271429 4.37714286,25.9354762 C4.3647619,25.965 4.35547619,25.9961905 4.35142857,26.0288095 C4.35119048,26.03 4.35142857,26.0311905 4.35142857,26.0321429 C4.35071429,26.0380952 4.35166667,26.0440476 4.35142857,26.05 C4.34952381,26.0778571 4.35047619,26.1061905 4.35547619,26.1342857 C4.35619048,26.1383333 4.3552381,26.1419048 4.35595238,26.1457143 L6.77119048,37.815 C6.78619048,37.8869048 6.82285714,37.952381 6.87619048,38.002619 L9.90857143,40.8590476 L7.89904762,42.0878571 C7.87285714,42.1038095 7.8497619,42.1235714 7.82880952,42.1452381 C7.82380952,42.1507143 7.8197619,42.1569048 7.8147619,42.162619 C7.79738095,42.1830952 7.78261905,42.2054762 7.7702381,42.2290476 C7.76595238,42.237381 7.76166667,42.2454762 7.75809524,42.2540476 C7.74571429,42.2835714 7.73619048,42.3142857 7.73190476,42.3461905 C7.73166667,42.3478571 7.73095238,42.3492857 7.73095238,42.3507143 C7.73071429,42.3511905 7.73071429,42.3514286 7.73071429,42.3516667 C7.72666667,42.3861905 7.72952381,42.42 7.7352381,42.4533333 C7.73595238,42.4571429 7.735,42.4609524 7.73571429,42.4647619 L9.60690476,51.5016667 C9.6202381,51.5666667 9.65119048,51.6261905 9.69666667,51.6742857 L17.2647619,59.707619 C17.275,59.7185714 17.2866667,59.7271429 17.2980952,59.7364286 C17.3040476,59.7414286 17.3095238,59.7471429 17.3157143,59.7516667 C17.3383333,59.7680952 17.3630952,59.7819048 17.3895238,59.7928571 C17.3909524,59.7933333 17.3919048,59.7945238 17.3933333,59.795 C17.3959524,59.7959524 17.3988095,59.7954762 17.4011905,59.7964286 C17.4414286,59.8111905 17.4828571,59.8197619 17.5245238,59.82 L17.5247619,59.82 C17.5595238,59.82 17.5942857,59.8128571 17.6283333,59.802381 C17.6366667,59.8 17.6452381,59.7969048 17.6535714,59.7935714 C17.662381,59.7902381 17.6714286,59.7885714 17.6802381,59.7842857 C17.6938095,59.777619 17.7040476,59.7671429 17.7164286,59.7588095 C17.7264286,59.752619 17.7378571,59.7495238 17.7471429,59.7419048 L27.4819048,51.9859524 C27.5711905,51.915 27.6209524,51.8054762 27.6161905,51.6914286 L27.3885714,46.3666667 L30.6407143,49.1040476 C30.6452381,49.1078571 30.6514286,49.1092857 30.6561905,49.1128571 C30.6754762,49.127619 30.6945238,49.142619 30.7169048,49.1533333 C30.7242857,49.1566667 30.7321429,49.1580952 30.7395238,49.1609524 C30.7471429,49.1640476 30.755,49.1666667 30.7628571,49.1690476 C30.7978571,49.1802381 30.8340476,49.1878571 30.8707143,49.1878571 C30.9059524,49.1878571 30.9404762,49.1807143 30.9742857,49.1704762 C30.982381,49.1680952 30.9904762,49.1652381 30.9985714,49.1621429 C31.0066667,49.1590476 31.0147619,49.157619 31.022619,49.1540476 C31.0397619,49.1459524 31.0535714,49.1338095 31.0690476,49.1235714 C31.0766667,49.1183333 31.0859524,49.1159524 31.0933333,49.11 L38.8966667,42.8864286 C38.9757143,42.8233333 39.0242857,42.7295238 39.0302381,42.6288095 L39.267619,38.7235714 L41.6419048,40.3761905 C41.647381,40.38 41.6538095,40.3811905 41.6595238,40.3847619 C41.6657143,40.3885714 41.6704762,40.3942857 41.6769048,40.397619 C41.6907143,40.405 41.7054762,40.4088095 41.7197619,40.4142857 C41.7295238,40.4178571 41.7388095,40.422381 41.7485714,40.4252381 C41.7804762,40.4342857 41.8128571,40.44 41.8457143,40.44 C41.8809524,40.44 41.9154762,40.4328571 41.9490476,40.422619 C41.957381,40.4202381 41.9654762,40.417619 41.9735714,40.4142857 C41.9814286,40.4114286 41.9897619,40.41 41.997381,40.4064286 C42.0178571,40.3966667 42.0354762,40.3833333 42.0533333,40.3704762 C42.0580952,40.3669048 42.0638095,40.3657143 42.0683333,40.3621429 L48.4340476,35.2880952 C48.5061905,35.2307143 48.5530952,35.1480952 48.5654762,35.0569048 L49.6945238,26.7011905 C49.6957143,26.692381 49.6938095,26.6838095 49.6942857,26.675 C49.695,26.6609524 49.6978571,26.6471429 49.6971429,26.6328571 L49.6971429,26.6328571 Z" id="Fill-16" fill="#757575"></path>
                    <path d="M12.415,27.0190476 L12.4152381,27.0190476 L10.1542857,11.5828571 L0.873333333,5.81214286 L3.88761905,20.372381 L12.415,27.0190476 Z M8.67380952,43.4721429 L10.2857143,51.2580952 L17.0066667,58.3921429 L15.8559524,50.5359524 L8.67380952,43.4721429 Z M27.0059524,37.4757143 L27.0321429,38.09 C27.037381,38.2140476 26.9778571,38.3319048 26.8747619,38.4014286 L24.2842857,40.1464286 L27.1011905,42.4457143 C27.1030952,42.447381 27.1045238,42.4495238 27.1064286,42.4511905 C27.1142857,42.4578571 27.1204762,42.4659524 27.1278571,42.4733333 C27.1416667,42.4871429 27.1547619,42.5014286 27.1659524,42.517381 C27.172619,42.5269048 27.1778571,42.5366667 27.1835714,42.5466667 C27.192619,42.562619 27.2007143,42.5790476 27.207381,42.5961905 C27.2114286,42.6071429 27.215,42.6180952 27.2180952,42.6292857 C27.2230952,42.647619 27.2259524,42.6661905 27.2280952,42.6852381 C27.2288095,42.692619 27.2316667,42.6995238 27.2319048,42.7071429 L27.3471429,45.3980952 L30.5069048,48.0578571 L30.4404762,40.097381 L27.0059524,37.4757143 Z M34.682381,26.9792857 L34.6128571,30.4478571 L39.3995238,33.6095238 C39.4138095,33.6188095 39.4254762,33.6311905 39.4380952,33.642381 C39.4452381,33.6488095 39.4533333,33.6540476 39.4597619,33.6609524 C39.5030952,33.7061905 39.5335714,33.7616667 39.5485714,33.822381 C39.5509524,33.8319048 39.5511905,33.8419048 39.552619,33.8516667 C39.5552381,33.8680952 39.5592857,33.8840476 39.5597619,33.9009524 C39.5597619,33.9064286 39.5580952,33.9116667 39.5580952,33.9171429 C39.5578571,33.9211905 39.5592857,33.925 39.5590476,33.9290476 L39.3183333,37.8885714 L41.5433333,39.4371429 L42.2152381,31.672381 L34.682381,26.9792857 Z M14.9969048,44.6704762 L7.44785714,37.5597619 L5.26261905,27.002381 L13.4040476,33.7859524 L14.9969048,44.6704762 L14.9969048,44.6704762 Z" id="Fill-13" fill="#A7A7A7"></path>
                    <path d="M25.5809524,20.845 L24.9542857,6.18904762 L10.8783333,11.5980952 L13.1783333,27.2992857 L25.5809524,20.845 Z M26.31,37.9204762 L25.8490476,27.1164286 L14.1264286,33.7888095 L15.7702381,45.0207143 L26.31,37.9204762 Z M26.5466667,43.3966667 L16.5771429,50.5292857 L17.7878571,58.7964286 L17.7880952,58.7964286 L26.8947619,51.5404762 L26.5466667,43.3966667 Z M31.155,40.1019048 L31.2216667,48.0940476 L38.3269048,42.4269048 L38.8004762,34.6340476 L31.155,40.1019048 Z M48.8761905,27.4252381 L47.8766667,34.8190476 L42.2733333,39.2854762 L42.9314286,31.6797619 L48.8761905,27.4252381 L48.8761905,27.4252381 Z" id="Fill-14" fill="#FFFFFF"></path>
                </g>
            </g>
        </g>
    </g>
</svg>